<svg xmlns="http://www.w3.org/2000/svg" viewBox="0 0 512 512">
  <linearGradient id="a" x1="-163.04" x2="-66.39" y1="70.86" y2="70.86" gradientUnits="userSpaceOnUse" gradientTransform="matrix(-5.09782 0 0 5.09884 -369.233 -105.33)">
    <stop offset="0" stop-color="#47b4e0"/>
    <stop offset=".17" stop-color="#1588e0"/>
    <stop offset="1" stop-color="#6eb4e0"/>
  </linearGradient>
  <path fill="url(#a)" d="M272.85 6.95l99.2 99.22c9.33 9.33 9.33 24.48 0 33.75-9.33 9.28-24.47 9.28-33.64 0L272.8 74.4c-9.33-9.28-24.47-9.28-33.65 0L74.4 239.1c-9.3 9.38-9.3 24.47 0 33.75l164.65 164.7c9.33 9.33 24.47 9.33 33.75 0l65.5-65.47c9.28-9.34 24.47-9.34 33.65 0 9.38 9.33 9.38 24.47 0 33.75L272.9 505c-9.33 9.33-24.47 9.33-33.65 0L7 272.85c-9.33-9.33-9.33-24.47 0-33.65L239.1 7c9.28-9.33 24.47-9.33 33.65 0z"/>
  <linearGradient id="b" x1="272.72" x2="307.77" y1="-373.93" y2="-373.93" gradientUnits="userSpaceOnUse" gradientTransform="matrix(0 -5.09884 -5.09782 0 -1450.85 1735.913)">
    <stop offset=".03" stop-color="#f0776f"/>
    <stop offset=".5" stop-color="#f0656f"/>
    <stop offset="1" stop-color="#f0606f"/>
  </linearGradient>
  <path fill="url(#b)" d="M405.8 173.58c9.28-9.18 24.37-9.18 33.65 0L505 239.15c9.33 9.33 9.33 24.47 0 33.65l-65.45 65.57c-9.33 9.28-24.47 9.28-33.65 0-9.38-9.33-9.38-24.47 0-33.75l31.7-31.77c9.3-9.28 9.3-24.47 0-33.65l-31.75-31.82c-9.33-9.33-9.33-24.47 0-33.75z"/>
  <linearGradient id="c" x1="268.22" x2="297.85" y1="483.76" y2="483.76" gradientUnits="userSpaceOnUse" gradientTransform="matrix(0 5.09884 5.09782 0 -2210.108 -1187.16)">
    <stop offset=".03" stop-color="#f0776f"/>
    <stop offset=".5" stop-color="#f0656f"/>
    <stop offset="1" stop-color="#f0606f"/>
  </linearGradient>
  <path fill="url(#c)" d="M255.97 331.54c41.8 0 75.55-33.8 75.55-75.57 0-41.7-33.8-75.46-75.55-75.46-41.7 0-75.44 33.77-75.44 75.47 0 41.8 33.74 75.57 75.44 75.57zm0-36.3c-21.66 0-39.25-17.54-39.25-39.27 0-21.67 17.6-39.26 39.25-39.26 21.67 0 39.26 17.6 39.26 39.27 0 21.73-17.54 39.27-39.26 39.27z"/>
</svg>
