<svg xmlns="http://www.w3.org/2000/svg" xmlns:xlink="http://www.w3.org/1999/xlink" viewBox="0 0 512 512">
  <defs>
    <linearGradient x1="272.72" y1="-373.93" x2="307.77" y2="-373.93" id="d" xlink:href="#a" gradientUnits="userSpaceOnUse" gradientTransform="matrix(0 -5.1042 -5.10014 0 -1451.71 1737.832)"/>
    <linearGradient x1="272.72" y1="-373.93" x2="307.77" y2="-373.93" id="f" xlink:href="#a" gradientUnits="userSpaceOnUse" gradientTransform="matrix(0 -5.1042 5.10014 0 1963.734 1737.204)"/>
    <linearGradient x1="-163.04" y1="70.86" x2="-66.39" y2="70.86" id="b" gradientUnits="userSpaceOnUse" gradientTransform="matrix(-1 0 0 1 -51.782 0)">
      <stop offset="0" stop-color="#47b4e0"/>
      <stop offset=".17" stop-color="#1588e0"/>
      <stop offset="1" stop-color="#6eb4e0"/>
    </linearGradient>
    <linearGradient x1="272.72" y1="-373.93" x2="307.77" y2="-373.93" id="a" gradientUnits="userSpaceOnUse" gradientTransform="matrix(0 -1 -1 0 -263.954 361.11)">
      <stop offset=".03" stop-color="#f0776f"/>
      <stop offset=".5" stop-color="#f0656f"/>
      <stop offset="1" stop-color="#f0606f"/>
    </linearGradient>
    <radialGradient cx="71.84" cy="72.59" r="14.94" fx="71.84" fy="72.59" id="g" xlink:href="#c" gradientUnits="userSpaceOnUse" gradientTransform="matrix(1 0 0 .84925 0 10.943)"/>
    <linearGradient x1="-163.04" y1="70.86" x2="-66.39" y2="70.86" id="e" xlink:href="#b" gradientUnits="userSpaceOnUse" gradientTransform="matrix(5.10014 0 0 5.1042 -105.577 -105.433)" spreadMethod="reflect"/>
  </defs>
  <path d="M405.76 173.92c9.33-9.33 24.43-9.33 33.74 0l65.5 65.56c9.33 9.33 9.33 24.44 0 33.76l-65.5 65.56c-9.32 9.33-24.42 9.33-33.73 0-9.3-9.32-9.3-24.44 0-33.76l31.77-31.8c9.32-9.32 9.32-24.44 0-33.76l-31.77-31.8c-9.3-9.33-9.3-24.45 0-33.77z" fill="url(#d)"/>
  <path d="M256.37 0c-16.63.85-25.16 17.15-36.8 26.8-34.42 34.33-62.53 62.97-96.76 97.46-10.85 12.58-3.48 29.88 8.3 38.6 27.34 27 54.53 54.1 81.6 81.2 4.5-16.53 17.86-29.35 34.75-32.87-18.97-19-38-37.98-57.06-56.96-11-12.5-3.66-29.8 8.28-38.44 17.17-16.46 27.15-28.4 44.78-44.34 13.34-9.57 28.7-.67 37.46 10.37 20.77 20.2 40.7 41.46 62 61.1 19.08 14.18 46.52-10.7 34.1-31.12-13.96-17.15-31.23-31.6-46.54-47.68C310.03 44.2 290.43 23.3 269.44 4c-3.87-2.56-8.43-4.03-13.07-4zm45.6 265.74c-3.6 16.92-16.6 30.34-33.17 34.77 18.7 18.8 37.4 37.43 56.1 56.32 11 12.5 3.88 30.04-8.12 38.6-14.6 13.45-34.35 34-49.9 46.25-14.44 8.48-27.93-2.8-36.96-13.24-20.23-19.66-39.67-40.27-60.4-59.33-19.23-14.24-46.73 10.57-34.28 31.1 13.7 16.9 30.7 31.1 45.75 46.9 20.73 20.16 40.7 41.36 62 60.93 13.35 9.48 28.52.4 37.28-10.53 35.25-35.1 77.28-75.45 112.36-110.7 10.86-12.6 3.44-29.83-8.3-38.6-27.55-27.54-54.96-54.98-82.38-82.46z" fill="url(#e)"/>
  <path d="M95.9 184.4c-9.3-9.32-24.4-9.32-33.72 0L7 238.85c-9.37 9.26-9.3 24.43 0 33.75l65.52 65.57c9.32 9.32 24.43 9.32 33.74 0 9.3-9.33 9.3-24.45 0-33.76l-31.78-31.8c-9.3-9.32-9.3-24.43 0-33.75l21.42-20.67c9.33-9.33 9.33-24.45 0-33.77z" fill="url(#f)"/>
  <linearGradient x1="268.22" y1="483.76" x2="297.85" y2="483.76" id="c" gradientUnits="userSpaceOnUse" gradientTransform="matrix(0 1 1 0 -412.892 -212.172)">
    <stop offset=".03" stop-color="#f0776f"/>
    <stop offset=".5" stop-color="#f0656f"/>
    <stop offset="1" stop-color="#f0606f"/>
  </linearGradient>
  <path d="M86.78 72.6a14.94 12.7 0 1 1-29.88 0 14.94 12.7 0 1 1 29.88 0z" transform="matrix(2.21913 0 0 2.61514 97.067 65.89)" fill="url(#g)"/>
</svg>
