<svg xmlns="http://www.w3.org/2000/svg" xmlns:xlink="http://www.w3.org/1999/xlink" viewBox="0 0 141.73 141.73">
  <defs>
    <linearGradient id="d" x1="272.72" x2="307.77" y1="-373.93" y2="-373.93" xlink:href="#a" gradientUnits="userSpaceOnUse" gradientTransform="matrix(0 -1 -1 0 -263.94 361.127)"/>
    <linearGradient id="f" x1="272.72" x2="307.77" y1="-373.93" y2="-373.93" xlink:href="#a" gradientUnits="userSpaceOnUse" gradientTransform="rotate(-90 383.37 -22.366)"/>
    <linearGradient id="b" x1="-163.04" x2="-66.39" y1="70.86" y2="70.86" gradientUnits="userSpaceOnUse" gradientTransform="matrix(-1 0 0 1 -51.782 0)">
      <stop offset="0" stop-color="#47b4e0"/>
      <stop offset=".17" stop-color="#1588e0"/>
      <stop offset="1" stop-color="#6eb4e0"/>
    </linearGradient>
    <linearGradient id="a" x1="272.72" x2="307.77" y1="-373.93" y2="-373.93" gradientUnits="userSpaceOnUse" gradientTransform="matrix(0 -1 -1 0 -263.954 361.11)">
      <stop offset=".03" stop-color="#f0776f"/>
      <stop offset=".5" stop-color="#f0656f"/>
      <stop offset="1" stop-color="#f0606f"/>
    </linearGradient>
    <radialGradient id="g" cx="71.84" cy="72.59" r="14.94" xlink:href="#c" fx="71.84" fy="72.59" gradientTransform="matrix(1 0 0 .84925 0 10.943)" gradientUnits="userSpaceOnUse"/>
    <linearGradient id="e" x1="-163.04" x2="-66.39" y1="70.86" y2="70.86" xlink:href="#b" gradientUnits="userSpaceOnUse" spreadMethod="reflect"/>
  </defs>
  <path fill="url(#d)" d="M100.26 54.73c1.83-1.83 4.8-1.83 6.62 0l12.84 12.85c1.83 1.82 1.83 4.78 0 6.6l-12.85 12.85c-1.82 1.83-4.78 1.83-6.6 0-1.84-1.82-1.84-4.8 0-6.6l6.22-6.24c1.82-1.84 1.82-4.8 0-6.63l-6.24-6.23c-1.83-1.82-1.83-4.8 0-6.6z"/>
  <path fill="url(#e)" d="M70.97 20.66c-3.26.16-4.94 3.36-7.22 5.25C57 32.64 51.5 38.25 44.78 45c-2.13 2.47-.68 5.86 1.63 7.56 5.37 5.3 10.7 10.6 16 15.9.9-3.23 3.5-5.74 6.82-6.43-3.72-3.72-7.45-7.44-11.2-11.16-2.14-2.45-.7-5.84 1.64-7.53 3.36-3.22 5.32-5.56 8.78-8.68 2.6-1.88 5.62-.14 7.34 2.03 4.07 3.95 7.98 8.1 12.16 11.96 3.74 2.78 9.12-2.1 6.7-6.1-2.75-3.36-6.14-6.2-9.14-9.34-4-3.9-7.85-8-11.97-11.78-.76-.5-1.65-.8-2.56-.78zm8.94 52.06c-.7 3.3-3.24 5.94-6.5 6.8 3.67 3.7 7.34 7.34 11 11.04 2.16 2.45.77 5.9-1.6 7.56-2.85 2.64-6.72 6.66-9.77 9.07-2.83 1.65-5.48-.56-7.25-2.6-3.96-3.86-7.78-7.9-11.84-11.63-3.77-2.8-9.16 2.07-6.72 6.1 2.68 3.3 6.02 6.1 8.97 9.18 4.06 3.95 7.97 8.1 12.14 11.94 2.62 1.84 5.6.06 7.32-2.08 6.9-6.87 15.15-14.78 22.03-21.68 2.12-2.47.66-5.85-1.64-7.56L79.9 72.72z"/>
  <path fill="url(#f)" d="M39.5 56.78c-1.82-1.82-4.78-1.82-6.6 0L22.07 67.45c-1.84 1.8-1.83 4.8 0 6.6l12.84 12.86c1.83 1.84 4.8 1.84 6.62 0 1.82-1.82 1.82-4.78 0-6.6l-6.23-6.23c-1.82-1.83-1.82-4.8 0-6.62l4.2-4.05c1.83-1.83 1.83-4.8 0-6.62z"/>
  <linearGradient id="c" x1="268.22" x2="297.85" y1="483.76" y2="483.76" gradientUnits="userSpaceOnUse" gradientTransform="matrix(0 1 1 0 -412.892 -212.172)">
    <stop offset=".03" stop-color="#f0776f"/>
    <stop offset=".5" stop-color="#f0656f"/>
    <stop offset="1" stop-color="#f0606f"/>
  </linearGradient>
  <path fill="url(#g)" d="M86.78 72.6a14.94 12.7 0 1 1-29.88 0 14.94 12.7 0 1 1 29.88 0z" transform="matrix(.4351 0 0 .51235 39.733 33.565)"/>
</svg>
